<svg id="Layer_1" data-name="Layer 1" xmlns="http://www.w3.org/2000/svg" viewBox="0 0 1920 1080">
  <title>MT-Circles</title>
  <rect x="72" y="792" width="144" height="144" rx="72" transform="translate(1008 720) rotate(90)" fill="#fad250"/>
  <rect x="288" y="864" width="144" height="144" rx="72" transform="translate(-576 1296) rotate(-90)" fill="#ff87a0"/>
  <rect x="216" y="792" width="72" height="72" rx="36" transform="translate(-576 1080) rotate(-90)" fill="#3c5078"/>
  <rect x="71.93" y="648" width="72" height="72" rx="36" transform="translate(-576.07 791.92) rotate(-90)" fill="#ff87a0"/>
  <rect x="216" y="1008" width="72" height="72" rx="36" transform="translate(-792 1296) rotate(-90)" fill="#ff87a0"/>
  <rect x="216" y="936" width="72" height="72" rx="36" transform="translate(-720 1224) rotate(-90)" fill="#82dca0"/>
  <rect x="0.07" y="756" width="72" height="72" rx="36" transform="translate(-755.92 828.07) rotate(-90)" fill="#82dca0"/>
  <rect x="0.07" y="504" width="72" height="72" rx="36" transform="translate(-503.92 576.07) rotate(-90)" fill="#fad250"/>
  <rect x="360" y="1008" width="72" height="72" rx="36" transform="translate(-648 1440) rotate(-90)" fill="#1ebee6"/>
  <rect x="432" y="972" width="72" height="72" rx="36" transform="translate(-540 1476) rotate(-90)" fill="#1ebee6"/>
  <rect x="504" y="972" width="72" height="72" rx="36" transform="translate(-468 1548) rotate(-90)" fill="#fad250"/>
  <rect x="0.07" y="900" width="72" height="72" rx="36" transform="translate(-899.92 972.07) rotate(-90)" fill="#1ebee6"/>
  <rect x="72.07" y="936" width="36" height="36" rx="18" transform="translate(-863.92 1044.07) rotate(-90)" fill="#82dca0"/>
  <rect x="0.07" y="648" width="36" height="36" rx="18" transform="translate(-647.93 684.07) rotate(-90)" fill="#ff87a0"/>
  <rect x="108.07" y="936" width="36" height="36" rx="18" transform="translate(-827.93 1080.07) rotate(-90)" fill="#1ebee6"/>
  <rect x="36.07" y="648" width="36" height="36" rx="18" transform="translate(720.07 611.93) rotate(90)" fill="#4664ea"/>
  <rect x="36.07" y="612" width="36" height="36" rx="18" transform="translate(684.07 575.93) rotate(90)" fill="#82dca0"/>
  <rect x="144.07" y="972" width="36" height="36" rx="18" transform="translate(324.14 1980) rotate(-180)" fill="#3c5078"/>
  <rect x="180" y="1044" width="36" height="36" rx="18" transform="translate(-864 1260) rotate(-90)" fill="#1ebee6"/>
  <rect x="108.07" y="972" width="36" height="36" rx="18" transform="translate(252.14 1980) rotate(-180)" fill="#fad250"/>
  <rect x="180" y="1008" width="36" height="36" rx="18" transform="translate(-828 1224) rotate(-90)" fill="#fad250"/>
  <rect x="324" y="1008" width="36" height="36" rx="18" transform="translate(1368 684) rotate(90)" fill="#3c5078"/>
  <rect x="288" y="1008" width="36" height="36" rx="18" transform="translate(1332 720) rotate(90)" fill="#82dca0"/>
  <rect x="324" y="1044" width="36" height="36" rx="18" transform="translate(1404 720) rotate(90)" fill="#ff87a0"/>
  <rect x="216" y="756" width="36" height="36" rx="18" transform="translate(1008 540) rotate(90)" fill="#ff87a0"/>
  <rect x="216" y="864" width="36" height="36" rx="18" transform="translate(1116 648) rotate(90)" fill="#ff87a0"/>
  <rect x="288" y="1044" width="36" height="36" rx="18" transform="translate(1368 756) rotate(90)" fill="#fad250"/>
  <rect x="72.07" y="756" width="36" height="36" rx="18" transform="translate(864.07 683.92) rotate(90)" fill="#3c5078"/>
  <rect x="108.07" y="756" width="36" height="36" rx="18" transform="translate(900.07 647.92) rotate(90)" fill="#1ebee6"/>
  <rect x="72.07" y="720" width="36" height="36" rx="18" transform="translate(828.07 647.92) rotate(90)" fill="#fad250"/>
  <rect x="108.07" y="720" width="36" height="36" rx="18" transform="translate(864.07 611.92) rotate(90)" fill="#4664ea"/>
  <rect x="0.07" y="864" width="36" height="36" rx="18" transform="translate(-863.92 900.07) rotate(-90)" fill="#3c5078"/>
  <rect x="36.07" y="864" width="36" height="36" rx="18" transform="translate(-827.92 936.07) rotate(-90)" fill="#82dca0"/>
  <rect x="0.07" y="828" width="36" height="36" rx="18" transform="translate(-827.92 864.07) rotate(-90)" fill="#1ebee6"/>
  <rect x="36.07" y="828" width="36" height="36" rx="18" transform="translate(-791.92 900.07) rotate(-90)" fill="#fad250"/>
  <rect x="180" y="684" width="36" height="36" rx="18" transform="translate(396 1404) rotate(-180)" fill="#82dca0"/>
  <rect x="180" y="720" width="36" height="36" rx="18" transform="translate(396 1475.99) rotate(180)" fill="#1ebee6"/>
  <rect x="144" y="720" width="36" height="36" rx="18" transform="translate(324 1475.99) rotate(-180)" fill="#ff87a0"/>
  <rect x="180" y="972" width="36" height="36" rx="18" transform="translate(1188 792) rotate(90)" fill="#1ebee6"/>
  <rect x="180" y="936" width="36" height="36" rx="18" transform="translate(1152 756) rotate(90)" fill="#4664ea"/>
  <rect x="144.07" y="936" width="36" height="36" rx="18" fill="#ff87a0"/>
  <rect x="144" y="684" width="36" height="36" rx="18" transform="translate(324 1404) rotate(180)" fill="#4664ea"/>
  <rect x="180" y="756" width="36" height="36" rx="18" transform="translate(396 1548) rotate(-180)" fill="#3c5078"/>
  <rect x="144" y="756" width="36" height="36" rx="18" transform="translate(324 1548) rotate(-180)" fill="#fad250"/>
  <rect y="972" width="36" height="36" rx="18" transform="translate(-972 1008) rotate(-90)" fill="#1ebee6"/>
  <rect y="1044" width="36" height="36" rx="18" transform="translate(-1044 1080) rotate(-90)" fill="#3c5078"/>
  <rect y="1008" width="36" height="36" rx="18" transform="translate(-1008 1044) rotate(-90)" fill="#4664ea"/>
  <rect y="576" width="36" height="36" rx="18" transform="translate(-576 612) rotate(-90)" fill="#1ebee6"/>
  <rect y="612" width="36" height="36" rx="18" transform="translate(-612 648) rotate(-90)" fill="#4664ea"/>
  <rect y="432" width="36" height="36" rx="18" transform="translate(-432 468) rotate(-90)" fill="#ff87a0"/>
  <rect x="71.93" y="1044" width="36" height="36" rx="18" transform="translate(179.85 2124) rotate(180)" fill="#82dca0"/>
  <rect x="71.93" y="1008" width="36" height="36" rx="18" transform="translate(179.85 2052) rotate(180)" fill="#1ebee6"/>
  <rect x="35.93" y="1008" width="36" height="36" rx="18" transform="translate(107.85 2052) rotate(-180)" fill="#ff87a0"/>
  <rect x="35.93" y="1044" width="36" height="36" rx="18" transform="translate(107.85 2124) rotate(-180)" fill="#4664ea"/>
  <rect x="504" y="1044" width="36" height="36" rx="18" transform="translate(-540 1584) rotate(-90)" fill="#3c5078"/>
  <rect x="612.07" y="1044" width="36" height="36" rx="18" transform="translate(-431.93 1692.07) rotate(-90)" fill="#82dca0"/>
  <rect x="539.93" y="1044" width="36" height="36" rx="18" transform="translate(1115.85 2124) rotate(-180)" fill="#4664ea"/>
  <rect x="576" y="1044" width="36" height="36" rx="18" transform="translate(1188 2124) rotate(-180)" fill="#ff87a0"/>
  <rect x="71.93" y="972" width="36" height="36" rx="18" transform="translate(179.85 1980) rotate(180)" fill="#ff87a0"/>
  <rect x="35.93" y="972" width="36" height="36" rx="18" transform="translate(107.85 1980) rotate(180)" fill="#fad250"/>
  <rect x="36.07" y="720" width="36" height="36" rx="18" transform="translate(108.15 1476) rotate(180)" fill="#ff87a0"/>
  <rect x="36.07" y="684" width="36" height="36" rx="18" transform="translate(108.15 1404) rotate(-180)" fill="#1ebee6"/>
  <rect x="0.07" y="720" width="36" height="36" rx="18" transform="translate(36.15 1476) rotate(180)" fill="#4664ea"/>
  <rect x="0.07" y="684" width="36" height="36" rx="18" transform="translate(36.15 1404) rotate(180)" fill="#3c5078"/>
  <rect x="0.07" y="468" width="36" height="36" rx="18" transform="translate(36.15 972) rotate(180)" fill="#3c5078"/>
  <rect x="468" y="1044" width="36" height="36" rx="18" fill="#fad250"/>
  <rect x="252" y="864" width="36" height="36" rx="18" transform="translate(1152 612) rotate(90)" fill="#fad250"/>
  <rect x="432" y="1044" width="36" height="36" rx="18" transform="translate(1512 612) rotate(90)" fill="#82dca0"/>
  <rect x="468" y="936" width="36" height="36" rx="18" fill="#ff87a0"/>
  <rect x="432" y="936" width="36" height="36" rx="18" transform="translate(1404 504) rotate(90)" fill="#4664ea"/>
  <rect x="252" y="900" width="36" height="36" rx="18" transform="translate(1188 648) rotate(90)" fill="#4664ea"/>
  <rect x="216" y="900" width="36" height="36" rx="18" transform="translate(1152 684) rotate(90)" fill="#82dca0"/>
  <rect x="108.07" y="1008" width="72" height="72" rx="36" transform="translate(-899.92 1188.07) rotate(-90)" fill="#3c5078"/>
</svg>
