<svg viewBox="0 0 1920 1080" xmlns="http://www.w3.org/2000/svg"><path d="m1776 936h144v144h-144z" fill="#3c5078" transform="matrix(-1 0 0 -1 3696 2016)"/><path d="m1704 720h144v144h-144z" fill="#ff87a0" transform="matrix(-1 0 0 -1 3552 1584)"/><path d="m1704 864h72v72h-72z" fill="#fad250" transform="matrix(-1 0 0 -1 3480 1800)"/><path d="m1632 792h72v72h-72z" fill="#3c5078" transform="matrix(-1 0 0 -1 3336 1656)"/><path d="m1632 864h72v72h-72z" fill="#1ebee6" transform="matrix(-1 0 0 -1 3336 1800)"/><path d="m1848 648h72v72h-72z" fill="#ff87a0" transform="matrix(-1 0 0 -1 3768 1368)"/><path d="m1848 468h72v72h-72z" fill="#fad250" transform="matrix(-1 0 0 -1 3768 1008)"/><path d="m1380 1007.93h72v72h-72z" fill="#82dca0" transform="matrix(-1 0 0 -1 2832 2087.85)"/><path d="m1848 576h36v36h-36z" fill="#82dca0" transform="matrix(0 -1 1 0 1272 2460)"/><path d="m1848 540h36v36h-36z" fill="#ff87a0" transform="matrix(0 -1 1 0 1308 2424)"/><path d="m1812.07 576h36v36h-36z" fill="#1ebee6" transform="matrix(0 -1 1 0 1236.07 2424.07)"/><path d="m1812.07 540h36v36h-36z" fill="#fad250" transform="matrix(0 -1 1 0 1272.07 2388.07)"/><path d="m1776 648h72v72h-72z" fill="#1ebee6" transform="matrix(-1 0 0 -1 3624 1368)"/><path d="m1560 1007.93h72v72h-72z" fill="#82dca0" transform="matrix(-1 0 0 -1 3192 2087.85)"/><path d="m1848 792h72v72h-72z" fill="#82dca0" transform="matrix(-1 0 0 -1 3768 1656)"/><path d="m1704 1007.93h72v72h-72z" fill="#1ebee6" transform="matrix(-1 0 0 -1 3480 2087.85)"/><path d="m1740 971.93h36v36h-36z" fill="#82dca0" transform="matrix(-1 0 0 -1 3516 1979.85)"/><path d="m1452 1043.93h36v36h-36z" fill="#ff87a0" transform="matrix(-1 0 0 -1 2940 2123.85)"/><path d="m1740 935.93h36v36h-36z" fill="#1ebee6" transform="matrix(-1 0 0 -1 3516 1907.86)"/><path d="m1704 971.93h36v36h-36z" fill="#4664ea" transform="matrix(-1 0 0 -1 3444 1979.85)"/><path d="m1704 935.93h36v36h-36z" fill="#82dca0" transform="matrix(-1 0 0 -1 3444 1907.86)"/><path d="m1596 900h36v36h-36z" fill="#3c5078" transform="matrix(-1 0 0 -1 3228 1836)"/><path d="m1560 864h36v36h-36z" fill="#1ebee6"/><path d="m1560 900h36v36h-36z" fill="#ff87a0" transform="matrix(-1 0 0 -1 3156 1836)"/><path d="m1596 864h36v36h-36z" fill="#fad250"/><path d="m1848 756h36v36h-36z" fill="#3c5078"/><path d="m1848 720h36v36h-36z" fill="#82dca0"/><path d="m1884 756h36v36h-36z" fill="#ff87a0"/><path d="m1596 828h36v36h-36z" fill="#ff87a0"/><path d="m1884 720h36v36h-36z" fill="#fad250"/><path d="m1596 971.93h36v36h-36z" fill="#3c5078" transform="matrix(-1 0 0 -1 3228 1979.85)"/><path d="m1596 935.93h36v36h-36z" fill="#1ebee6" transform="matrix(-1 0 0 -1 3228 1907.85)"/><path d="m1560 971.93h36v36h-36z" fill="#4664ea" transform="matrix(-1 0 0 -1 3156 1979.85)"/><path d="m1560 935.93h36v36h-36z" fill="#82dca0" transform="matrix(-1 0 0 -1 3156 1907.85)"/><path d="m1668 971.93h36v36h-36z" fill="#fad250" transform="matrix(-1 0 0 -1 3372 1979.85)"/><path d="m1668 935.93h36v36h-36z" fill="#3c5078" transform="matrix(-1 0 0 -1 3372 1907.85)"/><path d="m1632 971.93h36v36h-36z" fill="#ff87a0" transform="matrix(-1 0 0 -1 3300 1979.85)"/><path d="m1344 1043.93h36v36h-36z" fill="#3c5078"/><path d="m1272 1043.93h36v36h-36z" fill="#fad250"/><path d="m1308 1043.93h36v36h-36z" fill="#ff87a0"/><path d="m1632 935.93h36v36h-36z" fill="#4664ea" transform="matrix(-1 0 0 -1 3300 1907.85)"/><path d="m1668 1043.93h36v36h-36z" fill="#3c5078" transform="matrix(-1 0 0 -1 3372 2123.85)"/><path d="m1668 1007.93h36v36h-36z" fill="#82dca0" transform="matrix(-1 0 0 -1 3372 2051.85)"/><path d="m1632 1043.93h36v36h-36z" fill="#1ebee6" transform="matrix(-1 0 0 -1 3300 2123.85)"/><path d="m1632 1007.93h36v36h-36z" fill="#fad250" transform="matrix(-1 0 0 -1 3300 2051.85)"/><path d="m1776 864h36v36h-36z" fill="#82dca0" transform="matrix(0 1 -1 0 2676 -912)"/><path d="m1812 864h36v36h-36z" fill="#1ebee6" transform="matrix(0 1 -1 0 2712 -948)"/><path d="m1812 900h36v36h-36z" fill="#ff87a0" transform="matrix(0 1 -1 0 2748 -912)"/><path d="m1776 900h36v36h-36z" fill="#4664ea" transform="matrix(0 1 -1 0 2712 -876)"/><path d="m1884 864h36v36h-36z" fill="#3c5078" transform="matrix(0 1 -1 0 2784 -1020)"/><path d="m1848 864h36v36h-36z" fill="#ff87a0" transform="matrix(0 1 -1 0 2748 -984)"/><path d="m1884 900h36v36h-36z" fill="#1ebee6" transform="matrix(0 1 -1 0 2820 -984)"/><path d="m1848 900h36v36h-36z" fill="#fad250" transform="matrix(0 1 -1 0 2784 -948)"/><path d="m1524 1007.93h36v36h-36z" fill="#ff87a0" transform="matrix(0 1 -1 0 2567.93 -516.07)"/><path d="m1488 1007.93h36v36h-36z" fill="#1ebee6" transform="matrix(0 1 -1 0 2531.93 -480.07)"/><path d="m1524 1043.93h36v36h-36z" fill="#4664ea" transform="matrix(0 1 -1 0 2603.93 -480.07)"/><path d="m1488 1043.93h36v36h-36z" fill="#82dca0" transform="matrix(0 1 -1 0 2567.93 -444.07)"/><path d="m1884 576h36v36h-36z" fill="#3c5078" transform="matrix(0 -1 1 0 1308 2496)"/><path d="m1704 684h36v36h-36z" fill="#fad250"/><path d="m1884 612h36v36h-36z" fill="#1ebee6"/><path d="m1848 612h36v36h-36z" fill="#fad250"/><path d="m1884 540h36v36h-36z" fill="#4664ea"/><path d="m1884 432h36v36h-36z" fill="#ff87a0"/><path d="m1884 396h36v36h-36z" fill="#1ebee6"/><path d="m1740 684h36v36h-36z" fill="#4664ea"/><path d="m1740 648h36v36h-36z" fill="#82dca0"/></svg>