<svg viewBox="0 0 1920 1080" xmlns="http://www.w3.org/2000/svg"><path d="m207.85 288.12 41.56 72 41.58-72z" fill="#1ebee6"/><path d="m83.14 216.12 41.57-72 41.57 72z" fill="#82dca0"/><path d="m83.14 72.08 41.57-72.01 41.57 72.01z" fill="#82dca0"/><path d="m41.57 432.16 41.57 72 41.57-72z" fill="#4664ea"/><path d="m0 144.12v-72l41.57 72z" fill="#82dca0"/><path d="m207.85 144.12 41.56 72 41.58-72z" fill="#fad250"/><path d="m124.71 288.12 41.57-72 41.57 72z" fill="#fad250"/><path d="m166.28 216.12 41.57-72 41.56 72z" fill="#4664ea"/><path d="m207.85 288.16 41.56-72 41.58 72z" fill="#ff87a0"/><path d="m415.69 72.12 41.57-72 41.57 72z" fill="#1ebee6"/><path d="m374.12.12 41.57 72 41.57-72z" fill="#ff87a0"/><path d="m207.85 144.07 41.56-71.99 41.58 71.99z" fill="#82dca0"/><path d="m0 216.12 41.57-72 41.57 72z" fill="#fad250"/><path d="m103.92 108.12 20.79-36 20.78 36z" fill="#4664ea"/><path d="m0 216.16v144l83.14-144z" fill="#82dca0"/><path d="m41.57 432.12 41.57-72 41.57 72z" fill="#1ebee6"/><path d="m249.41 216.12 41.58-72 41.56 72z" fill="#3c5078"/><path d="m415.69 72.12-41.57 72-41.57-72z" fill="#fad250"/><path d="m332.55 72.12 20.79-36 20.78 36z" fill="#4664ea"/><path d="m374.12 72.12 20.79-36 20.78 36z" fill="#1ebee6"/><path d="m727.46 36.08 20.79-36.01 20.78 36.01z" fill="#1ebee6"/><path d="m103.92 108.12 20.79 36 20.78-36z" fill="#3c5078"/><path d="m83.14 144.12 20.78-36 20.79 36z" fill="#ff87a0"/><path d="m62.35 108.12 20.79-36 20.78 36z" fill="#4664ea"/><path d="m62.35 108.12 20.79 36 20.78-36z" fill="#1ebee6"/><path d="m83.14 72.12 20.78 36 20.79-36z" fill="#fad250"/><path d="m124.71 72.12 20.78 36 20.79-36z" fill="#ff87a0"/><path d="m41.57 144.12 20.78-36 20.79 36z" fill="#82dca0"/><path d="m332.55.12 20.79 36 20.78-36z" fill="#ff87a0"/><path d="m311.77 36.12 20.78 36 20.79-36z" fill="#1ebee6"/><path d="m311.77 36.12 20.78-36 20.79 36z" fill="#fad250"/><path d="m290.99.12 20.78 36 20.78-36z" fill="#82dca0"/><path d="m83.14 288.12 20.78 36 20.79-36z" fill="#3c5078"/><path d="m20.79 468.16 20.78-36 20.78 36z" fill="#fad250"/><path d="m20.79 468.16 20.78 36 20.78-36z" fill="#ff87a0"/><path d="m353.34 36.12 20.78-36 20.79 36z" fill="#fad250"/><path d="m353.34 36.12 20.78 36 20.79-36z" fill="#3c5078"/><path d="m374.12 144.12 20.79-36 20.78 36z" fill="#4664ea"/><path d="m394.91 108.12 20.78-36 20.79 36z" fill="#1ebee6"/><path d="m394.91 108.12 20.78 36 20.79-36z" fill="#ff87a0"/><path d="m0 504.16 20.79-36 20.78 36z" fill="#4664ea"/><path d="m62.35 324.12 20.79-36 20.78 36z" fill="#1ebee6"/><path d="m41.57 288.12 20.78 36 20.79-36z" fill="#4664ea"/><path d="m62.35 324.12 20.79 36 20.78-36z" fill="#82dca0"/><path d="m290.99 216.12 20.78 36 20.78-36z" fill="#3c5078"/><path d="m187.06 252.12 20.79-36 20.78 36z" fill="#1ebee6"/><path d="m207.85 216.12 20.78 36 20.78-36z" fill="#3c5078"/><path d="m166.28 216.12 20.78 36 20.79-36z" fill="#ff87a0"/><path d="m187.06 252.12 20.79 36 20.78-36z" fill="#4664ea"/><path d="m270.2 252.12 20.79 36 20.78-36z" fill="#1ebee6"/><path d="m249.41 216.12 20.79 36 20.79-36z" fill="#4664ea"/><path d="m270.2 252.12 20.79-36 20.78 36z" fill="#fad250"/><path d="m41.57 288.12 41.57-72 41.57 72z" fill="#ff87a0"/><path d="m623.54 72.08 41.57-72.01 41.57 72.01z" fill="#ff87a0"/><path d="m207.85 144.12-41.57 72-41.57-72z" fill="#1ebee6"/><path d="m207.85 144.12-41.57-72-41.57 72z" fill="#4664ea"/><path d="m249.41 72.12-41.56 72-41.57-72z" fill="#ff87a0"/><path d="m166.28 360.12-41.57 72-41.57-72z" fill="#fad250"/><path d="m166.28 360.12-41.57-72-41.57 72z" fill="#4664ea"/><path d="m41.57 432.12-41.57-72v72z" fill="#4664ea"/><path d="m0 360.16 41.57 72 41.57-72z" fill="#ff87a0"/><path d="m83.14 360.16-41.57-72-41.57 72z" fill="#fad250"/><path d="m207.85 288.12-41.57 72-41.57-72z" fill="#ff87a0"/><path d="m228.63 324.12-20.78-36-20.79 36z" fill="#3c5078"/><path d="m41.57 504.16 20.78-36 20.79 36z" fill="#82dca0"/><path d="m290.99 144.12 41.56-72 41.57 72z" fill="#ff87a0"/><path d="m311.77 108.08-20.78 35.99-20.79-35.99z" fill="#1ebee6"/><path d="m332.55 72.08-20.78 36-20.78-36z" fill="#fad250"/><path d="m249.41 72.08 20.79 36 20.79-36z" fill="#4664ea"/><path d="m311.77 108.08-20.78-36-20.79 36z" fill="#82dca0"/><path d="m249.41 360.12-20.78-36-20.78 36z" fill="#fad250"/><path d="m166.28 360.12 20.78-36 20.79 36z" fill="#82dca0"/><path d="m228.63 324.12-20.78 36-20.79-36z" fill="#1ebee6"/><path d="m394.91 180.12-20.79 36-20.78-36z" fill="#fad250"/><path d="m332.55 216.12 20.79-36 20.78 36z" fill="#4664ea"/><path d="m0 576.16 20.79 36 20.78-36z" fill="#4664ea"/><path d="m415.69 72.12 20.79 36 20.78-36z" fill="#fad250"/><path d="m498.83 72.12-20.78 36-20.79-36z" fill="#3c5078"/><path d="m436.48 108.12 20.78-36 20.79 36z" fill="#82dca0"/><path d="m62.35 36.08 20.79 36 20.78-36z" fill="#4664ea"/><path d="m41.57.07 20.78 36.01 20.79-36.01z" fill="#fad250"/><path d="m124.71.07-20.79 36.01-20.78-36.01z" fill="#ff87a0"/><path d="m62.35 36.08 20.79-36.01 20.78 36.01z" fill="#82dca0"/><path d="m0 180.12v36l20.79-36z" fill="#4664ea"/><path d="m41.57 144.12-20.78 36-20.79-36z" fill="#ff87a0"/><path d="m0 180.12v-36l20.79 36z" fill="#82dca0"/><path d="m0 468.16v36l20.79-36z" fill="#82dca0"/><path d="m0 612.16v-36l20.79 36z" fill="#ff87a0"/><path d="m0 612.16v36l20.79-36z" fill="#fad250"/><path d="m41.57 432.16-20.78 36-20.79-36z" fill="#1ebee6"/><path d="m0 468.16v-36l20.79 36z" fill="#3c5078"/><path d="m103.92 252.12 20.79 36 20.78-36z" fill="#1ebee6"/><path d="m83.14 216.12 20.78 36 20.79-36z" fill="#fad250"/><path d="m166.28 216.12-20.79 36-20.78-36z" fill="#4664ea"/><path d="m103.92 252.12 20.79-36 20.78 36z" fill="#3c5078"/><path d="m311.77 180.12 20.78 36 20.79-36z" fill="#1ebee6"/><path d="m290.99 144.12 20.78 36 20.78-36z" fill="#fad250"/><path d="m374.12 144.12-20.78 36-20.79-36z" fill="#4664ea"/><path d="m311.77 180.12 20.78-36 20.79 36z" fill="#ff87a0"/><path d="m415.69 144.12-20.78 36-20.79-36z" fill="#1ebee6"/><path d="m748.25.07 20.78 36.01 20.79-36.01z" fill="#ff87a0"/><path d="m831.38.07-20.78 36.01-20.78-36.01z" fill="#4664ea"/><path d="m665.11.07-20.79 36.01-20.78-36.01z" fill="#3c5078"/><path d="m353.34 180.12 20.78-36 20.79 36z" fill="#82dca0"/><path d="m270.2 324.12 20.79-36 20.78 36z" fill="#82dca0"/><path d="m290.99 288.12 20.78-36 20.78 36z" fill="#3c5078"/><path d="m290.99 288.12 20.78 36 20.78-36z" fill="#ff87a0"/><path d="m311.77 324.12-20.78 36-20.79-36z" fill="#4664ea"/><path d="m249.41 360.12 20.79-36 20.79 36z" fill="#ff87a0"/><path d="m83.14 504.16 20.78-36 20.79 36z" fill="#3c5078"/><path d="m103.92 468.16 20.79-36 20.78 36z" fill="#ff87a0"/><path d="m103.92 468.16 20.79 36 20.78-36z" fill="#4664ea"/><path d="m124.71 504.16-20.79 36-20.78-36z" fill="#fad250"/><path d="m62.35 540.16 20.79-36 20.78 36z" fill="#1ebee6"/><path d="m41.57 144.12 41.57 72 41.57-72z" fill="#4664ea"/><path d="m207.85.07 41.56 72.01 41.58-72.01z" fill="#82dca0"/><path d="m457.26.12 41.57 72 41.57-72z" fill="#4664ea"/><path d="m498.83 72.12 41.57-72 41.57 72z" fill="#3c5078"/><path d="m540.4.12 41.57 72 41.57-72z" fill="#82dca0"/><path d="m166.28 72.08 41.57-72.01 41.56 72.01z" fill="#4664ea"/><path d="m83.14 72.12-41.57 72-41.57-72z" fill="#ff87a0"/><path d="m0 576.16v-72l41.57 72z" fill="#1ebee6"/><path d="m83.14 504.16-41.57 72-41.57-72z" fill="#fad250"/><path d="m41.57.07-41.57 72.01v-72.01z" fill="#ff87a0"/><path d="m0 72.08 41.57-72.01 41.57 72.01z" fill="#4664ea"/><path d="m124.71.07 41.57 72.01 41.57-72.01z" fill="#fad250"/><path d="m665.11.07 41.57 72.01 41.57-72.01z" fill="#fad250"/><path d="m270.2 36.08 20.79 36 20.78-36z" fill="#1ebee6"/><path d="m290.99 72.08 20.78-36 20.78 36z" fill="#82dca0"/><path d="m602.75 36.08 20.79 36 20.78-36z" fill="#1ebee6"/><path d="m602.75 36.08 20.79-36.01 20.78 36.01z" fill="#fad250"/><path d="m581.97 72.03 20.78-36 20.79 36z" fill="#4664ea"/><path d="m769.03 36.08 20.79-36.01 20.78 36.01z" fill="#82dca0"/><path d="m249.41 72.08 20.79-36 20.79 36z" fill="#ff87a0"/><path d="m270.2 36.08 20.79-36.01 20.78 36.01z" fill="#4664ea"/></svg>